<svg viewBox="0 0 217 76" fill="none" xmlns="http://www.w3.org/2000/svg"><g clip-path="url(#a)"><path d="M118.612 75.227a2.574 2.574 0 0 1 .019-3.65 2.535 2.535 0 0 1 1.79-.745 2.513 2.513 0 0 1 1.865.754 2.541 2.541 0 0 1 .037 3.594l-.037.038a2.549 2.549 0 0 1-3.599.028l-.028-.028h-.047v.01Zm13.678-4.787 4.429 1.742a5.391 5.391 0 0 1-2.405 2.794 7.912 7.912 0 0 1-8.625-.54 6.378 6.378 0 0 1 0-9.313 7.932 7.932 0 0 1 8.625-.578 5.524 5.524 0 0 1 2.396 2.692l-4.429 1.77a1.807 1.807 0 0 0-1.865-1.565c-1.147 0-1.967.81-1.967 2.281 0 1.472.83 2.3 1.977 2.3a1.86 1.86 0 0 0 1.864-1.583Zm9.297 5.094a5.72 5.72 0 0 1-3.655-3.129 6.359 6.359 0 0 1-.56-2.691 6.764 6.764 0 0 1 .541-2.71 5.777 5.777 0 0 1 3.655-3.148 8.467 8.467 0 0 1 5.175 0 5.888 5.888 0 0 1 3.664 3.13c.373.856.56 1.778.55 2.71a6.383 6.383 0 0 1-.54 2.7 5.81 5.81 0 0 1-3.655 3.138 8.467 8.467 0 0 1-5.175 0Zm2.592-3.64a1.871 1.871 0 0 0 1.398-.578 2.22 2.22 0 0 0 .56-1.611 2.199 2.199 0 0 0-.56-1.602 2.011 2.011 0 0 0-2.797 0 2.562 2.562 0 0 0 0 3.213 1.87 1.87 0 0 0 1.399.577Zm27.226-6.827a8.956 8.956 0 0 1 .933 4.582v6.025h-4.84v-6.016c0-1.453-.475-2.179-1.417-2.179-.942 0-1.52.764-1.52 2.188v6.026h-4.83v-6.026c0-1.452-.475-2.179-1.417-2.179-.942 0-1.52.764-1.52 2.189v6.025h-4.839v-12.05h4.662l.215 1.2c.512-.93 1.743-1.433 3.328-1.433 1.921 0 3.198.745 3.842 2.253a4.084 4.084 0 0 1 3.935-2.263 3.733 3.733 0 0 1 3.468 1.658Z" fill="#221F1F"/><path d="M27.254 43.536c.448 4.768-2.032 8.978-7.067 11.892-7.03 4.07-14.443 2.32-18.369-4.45-3.73-6.464-1.557-14.184 5.007-17.983 6.863-3.968 13.986-2.068 18.266 5.242.308.55.578 1.127.802 1.723L11.907 48.1c.886 1.238 2.601 1.266 4.168.363a3.225 3.225 0 0 0 1.864-3.148l9.315-1.779Zm-18.219-.298 5.548-3.212c-.811-1.109-2.378-1.165-3.898-.28s-2.21 2.235-1.65 3.492Z" fill="#EB2429"/><path d="M72.448 55.792c-3.906 2.793-8.792 2.728-13.846-.177-7.04-4.042-9.23-11.334-5.324-18.113 3.73-6.519 11.524-8.437 18.098-4.657 6.872 3.94 8.802 11.082 4.578 18.42-.317.55-.671 1.081-1.072 1.575l-14.089-8.084c-.634 1.379.205 2.878 1.772 3.781 1.1.81 2.592.848 3.73.084l6.153 7.17ZM63.6 39.876l5.594 3.195c.56-1.258-.177-2.636-1.706-3.511-1.53-.876-3.077-.792-3.888.316Z" fill="#FAAF1C"/><path d="M97.456 42.28a5.206 5.206 0 0 0-2.453-.532c-3.524 0-5.473 2.207-5.473 6.52v8.166H79.274v-24.64H89.53v3.724c1.408-2.887 3.413-4.302 6.527-4.312.485-.018.97.047 1.427.196l-.028 10.877Z" fill="#F05B8E"/><path d="M100.579 66.306v-8.382c1.128.54 2.369.82 3.627.82 2.154 0 3.814-.494 4.401-2.058l-.195.39L98.164 31.85h10.919l4.82 13.969 4.718-13.969h10.621l-10.108 25.004c-3.077 7.58-7.226 10.72-12.951 10.728a11.067 11.067 0 0 1-5.604-1.275Z" fill="#75C044"/><path d="M144.906 56.37v-2.44a8.01 8.01 0 0 1-6.704 3.138c-6.406 0-11.189-5.7-11.189-12.982 0-7.283 4.774-13.038 11.189-13.038a7.985 7.985 0 0 1 6.713 3.12V22.145h10.257l.065 34.215h-10.331v.01Zm-3.73-8.485a3.821 3.821 0 0 0 3.721-3.92 3.822 3.822 0 0 0-3.926-3.716 3.825 3.825 0 0 0-3.72 3.828 3.833 3.833 0 0 0 3.869 3.808h.056Z" fill="#F15B27"/><path d="m181.018 28.45 6.425 23.784-9.875 2.664-.624-2.356a7.946 7.946 0 0 1-5.66 4.758c-6.191 1.677-12.317-2.598-14.21-9.629-1.893-7.03 1.24-13.801 7.459-15.477a8.032 8.032 0 0 1 7.292 1.275l-.634-2.356 9.827-2.663Zm-9.259 19.23a3.81 3.81 0 1 0-2.181-7.3 3.81 3.81 0 0 0-2.592 4.637 3.84 3.84 0 0 0 4.727 2.673h.046v-.01Z" fill="#0197CD"/><path d="m180.347 67.237 2.191-8.158a8.326 8.326 0 0 0 3.282 1.732c2.089.559 3.823.512 4.793-.847l-.289.326-3.348-27.007 10.546 2.794 1.044 14.695 8.177-12.246L217 41.255l-16.261 21.66c-4.933 6.52-9.763 8.485-15.292 7.013a11.009 11.009 0 0 1-5.1-2.691Z" fill="#91298C"/><path d="M23.609 9.145h5.538v2.002h.065a5.469 5.469 0 0 1 4.924-2.393A4.491 4.491 0 0 1 38.2 11.1a5.858 5.858 0 0 1 5.138-2.356c3.86 0 5.165 2.654 5.174 5.084v10.319H42.78v-8.13c0-1.425-.15-2.701-1.865-2.692-1.492-.009-1.967 1.118-1.967 2.692v8.139h-5.744v-8.14c0-1.424-.149-2.7-1.865-2.69-1.454 0-1.94 1.126-1.94 2.69v8.15h-5.77l-.02-15.022Zm58.117-.102h5.594v1.909h.056a5.601 5.601 0 0 1 4.905-2.3 4.866 4.866 0 0 1 5.175 4.516c.009.196.018.382 0 .577v10.319h-5.753v-7.879c0-1.741-.206-2.961-1.865-2.961-.989 0-2.294.503-2.285 2.905v7.944H81.81l-.084-15.03Zm16.737-5.681h5.753v9.992l3.645-4.349h6.527l-5.352 5.69 6.219 9.313h-6.899l-3.087-5.448-1.053 1.183v4.349h-5.744V3.362h-.01Z" fill="#221F1F"/><path d="M118.77 17.787a2.856 2.856 0 0 0 2.835 2.887h.103a2.896 2.896 0 0 0 2.405-1.08h5.362c-1.147 3.25-4.308 4.758-7.739 4.768-4.812 0-8.448-2.794-8.457-7.841-.122-4.266 3.235-7.832 7.505-7.953h.439c5.976 0 8.559 3.315 8.569 9.173l-11.022.046Zm5.502-2.999a2.474 2.474 0 0 0-2.443-2.495h-.084a2.735 2.735 0 0 0-2.956 2.486v.037l5.483-.028Z" fill="#221F1F"/><path d="M140.048 22.816a14.656 14.656 0 0 1-1.865 4.181c-1.501 1.863-3.823 1.863-6.06 1.863h-2.611v-4.573h1.333c.588.065 1.175.01 1.744-.149.345-.177.55-.465.55-1.136 0-.67-2.219-6.258-2.536-7.124l-2.564-6.92h6.153l2.415 8.633h.066l2.424-8.642h5.939l-4.988 13.867ZM46.919 45.175l7.646-13.28-15.338.029-15.339.027 7.693 13.252.046.075 15.245-.028.047-.075Zm-7.646 13.28 5.557-9.657-11.151.019 5.594 9.638Zm36.579-48.239a1.088 1.088 0 0 0 0-.242.69.69 0 0 0-.672-.69h-.354l-.065-.083-.27-.307c-.112-.13-.224-.27-.355-.4l-.168-.169-.494-.484h-.065a12.254 12.254 0 0 0-3.842-2.347 4.289 4.289 0 0 0-1.119-2.29 6.333 6.333 0 0 0-.363-.354l-.112-.093a3.796 3.796 0 0 0-.55-.373l-.662-.345-.066.736a3.61 3.61 0 0 1-.242.931 3.088 3.088 0 0 0-.112-.39c-.056-.178-.093-.364-.158-.522a3.963 3.963 0 0 0-.29-.559 1.042 1.042 0 0 0-.093-.186 3.527 3.527 0 0 0-.457-.587 4.46 4.46 0 0 0-.438-.4 3.971 3.971 0 0 0-1.8-.876L61.55 0l1.165 1.052s.084.084.121.13c.084.085.168.178.243.27.065.085.112.178.167.262l.084.149c.047.093.084.186.112.288v.13c.028.094.047.187.056.28v.382c0 .177-.028.363-.065.54v.065a3.332 3.332 0 0 1-.15.522c-.074-.112-.148-.224-.242-.326a2.852 2.852 0 0 0-.242-.233l-.093-.093-.112-.075a1.799 1.799 0 0 0-.355-.177h-.111a1.455 1.455 0 0 0-.448-.074c-.27 0-.531.056-.783.149l-.7.27.513.54c.308.354.513.773.616 1.22-.317.102-.625.214-.933.344l-.223.103c-.206.093-.42.186-.616.289l-.531.298-.28.158-.54.354-.243.167-.467.354-.28.224-.363.335-.345.317-.27.28-.383.418-.205.242-.13.168h-.43a.69.69 0 0 0-.67.689c0 .084.018.168.056.242a6.152 6.152 0 0 0-4.28 6.025 6.224 6.224 0 0 0 3.776 5.84c2.834 6.192 10.154 8.912 16.345 6.08a12.318 12.318 0 0 0 6.126-6.155 6.217 6.217 0 0 0 3.674-5.811 6.144 6.144 0 0 0-4.261-6.016Zm-.653-.373c.075 0 .13.047.14.121 0 0 0 .112-.121.121h-7.926a.911.911 0 0 1-.41-.093l-.103-.055-.065-.047a1.454 1.454 0 0 1-.373-.382 1.647 1.647 0 0 1-.354-.94 1.266 1.266 0 0 1 1.37-1.155c.616.056 1.1.54 1.157 1.155a.123.123 0 0 1-.122.12.123.123 0 0 1-.12-.12 1.03 1.03 0 0 0-.924-1.118 1.03 1.03 0 0 0-1.119.922v.196c.019.363.168.717.41.987a.87.87 0 0 0 .616.288h7.944Zm-2.434 4.713a2.33 2.33 0 0 0 1.623.419 4.511 4.511 0 0 1-1.203 1.248l-.084.083a.399.399 0 0 0-.056.205v.14s.075.047.112.065h.075c.195.037.391.037.587 0a1.35 1.35 0 0 1-.662.736.33.33 0 0 0-.242.316v2.347c0 .345-.047.68-.122 1.015a3.796 3.796 0 0 1-.12.466l-.094.251-.224.121a7.355 7.355 0 0 1-4.802.783 6.524 6.524 0 0 1-2.023-.699V20.61c.233-.047.448-.159.615-.317l.933-.931a1.275 1.275 0 0 0 0-1.797l-.13-.13h-3.45l-.131.13a1.255 1.255 0 0 0 0 1.788l.932.94c.15.14.336.242.532.298v1.546a6.496 6.496 0 0 1-1.94.68 7.299 7.299 0 0 1-4.942-.782l-.242-.13-.093-.234-.019-.223c0-.103 0-.205-.056-.307a5.985 5.985 0 0 1-.112-1.155V16.4a5.387 5.387 0 0 1 .653-2.683c.093-.158.205-.307.317-.447a5.68 5.68 0 0 1 .68-.8c.113-.112.215-.233.336-.336a5.58 5.58 0 0 1 .373-.28 7.784 7.784 0 0 1 2.163-1.145h1.035a1.61 1.61 0 0 0 1.11-.474 10.393 10.393 0 0 1 2.014 0c.298.288.69.456 1.11.465h1.044a8.954 8.954 0 0 1 1.725.773l.475.317c.13.093.243.186.364.288.121.103.242.205.354.317a6.1 6.1 0 0 1 .69.792l.084.102c.14.196.205.391.466.428.243.028.495.02.728-.046.065-.019.13-.037.196-.065a1.05 1.05 0 0 1-.56.4.32.32 0 0 0-.112.447c.028.037.056.075.093.103Zm-.652 8.38c-.075.113-.14.224-.224.336-1.865 2.347-5.128 3.157-7.99 2.794a7.915 7.915 0 0 1-5.595-3.166 7.965 7.965 0 0 0 6.825-.14l.112-.056.214.102a9.87 9.87 0 0 0 1.231.476 7.942 7.942 0 0 0 5.427-.354v.009ZM61.996 6.119l.364-.111v-.382a3.569 3.569 0 0 0-.41-1.546c.074.028.14.074.205.121.102.084.186.177.251.289v.056c.066.111.13.223.187.335v.112s.056.13.074.186c.01.074.028.14.056.205l.224 1.127.671-.932c.131-.205.252-.419.355-.633.093-.177.168-.363.233-.55.056-.176.121-.363.168-.558l.056-.345V2.98a4.37 4.37 0 0 0 0-.494 3.157 3.157 0 0 0-.122-.512 3.516 3.516 0 0 1 1.222 1.947v2.365l.858-.8a4.561 4.561 0 0 0 1.1-1.863l.364.298.12.14c.066.092.14.195.206.307l.093.167c.075.14.14.289.187.438a.41.41 0 0 1 .056.149c.074.233.12.466.14.708v.326l.307.102c.84.289 1.632.68 2.378 1.164.233.15.457.307.68.475.513.4.989.838 1.427 1.313h-6.154c-.205 0-.466-.4-.466-.708 0-.26.205-.465.466-.465s.466.205.466.465c0 .373.308.68.681.68.373 0 .68-.307.68-.68a1.86 1.86 0 0 0-2.218-1.424 1.862 1.862 0 0 0-1.427 1.424c0 .326.075.643.214.932a9.079 9.079 0 0 0-1.007 0c.14-.289.215-.606.215-.932a1.868 1.868 0 0 0-2.2-1.452 1.853 1.853 0 0 0-1.455 1.452.685.685 0 0 0 .764.606.693.693 0 0 0 .606-.606c0-.26.206-.465.467-.465.26 0 .466.205.466.465 0 .308-.261.717-.457.717h-6.2a11.165 11.165 0 0 1 5.11-3.1ZM55.124 9.9h7.907a.814.814 0 0 0 .597-.27 1.52 1.52 0 0 0 .494-1.052c0-.568-.457-1.024-1.026-1.024-.568 0-1.025.456-1.025 1.024a.123.123 0 0 1-.121.121.122.122 0 0 1-.15-.075v-.046a1.269 1.269 0 0 1 2.536 0 1.755 1.755 0 0 1-.69 1.304h-.056l-.111.056a.922.922 0 0 1-.41.102h-7.917c-.084 0-.112-.047-.112-.075 0 0 .056-.055.093-.065h-.009Zm-2.107 8.922c.084.633.224 1.257.42 1.862a5.37 5.37 0 0 1-2.21-4.405 5.235 5.235 0 0 1 2.965-4.851c-.29.586-.541 1.182-.737 1.806a4.262 4.262 0 0 0-1.25 3.055c0 .912.28 1.797.812 2.533Zm23.226 1.024c-.13.475-.28.95-.457 1.406l-.26.568c-.085.177-.16.354-.252.513l-.094.167c-.242.4-.513.783-.802 1.155a6.487 6.487 0 0 1-.242.307 10.24 10.24 0 0 1-.774.931l-.42.41-.167.15c-.485.437-1.007.828-1.557 1.182l-.27.158-.504.289-.373.177c-.252.121-.513.233-.774.335l-.438.159-.448.149-.718.186-.457.084a7.34 7.34 0 0 1-.653.102l-.391.047h-2.34l-.662-.187-.467-.093c-.233-.046-.466-.112-.699-.177l-.457-.14-.429-.158a13.85 13.85 0 0 1-.848-.363l-.299-.149-.531-.27-.242-.149a11.528 11.528 0 0 1-1.586-1.183l-.111-.111c-.15-.13-.29-.27-.439-.42a12.46 12.46 0 0 1-.764-.93c-.084-.112-.177-.215-.261-.336-.243-.335-.467-.68-.681-1.043a1.52 1.52 0 0 0-.103-.168l-.251-.512c-.084-.186-.178-.363-.252-.559a10.418 10.418 0 0 1-.466-1.378 11.13 11.13 0 0 1-.439-2.98 11.307 11.307 0 0 1 1.679-5.923l.26-.41h4.588a9.327 9.327 0 0 0-1.025.69c-.121.093-.252.186-.364.288l-.336.336a6.33 6.33 0 0 0-.69.81 2.623 2.623 0 0 0-.27.363 5.561 5.561 0 0 0-.858 3.017v4.023c0 .242.028.485.056.727 0 .13.065.26.093.39.028.131.066.308.112.457.056.15.112.289.187.428a6.218 6.218 0 0 0 1.314 1.965 9.767 9.767 0 0 0 8.27 2.412 8.145 8.145 0 0 0 6.313-4.311l.056-.066v-.223l.075-.214v-.065c0-.15.084-.298.121-.447.075-.373.121-.745.14-1.127v-2.142a2.855 2.855 0 0 0 1.128-1.704.34.34 0 0 0-.252-.4c-.037 0-.065-.01-.102 0 .326-.364.615-.764.848-1.193a.338.338 0 0 0-.14-.456.296.296 0 0 0-.149-.037 4.626 4.626 0 0 1-.718 0 5.605 5.605 0 0 1-.55 0c.373-.298.634-.717.728-1.183 0-.251-.299-.41-.495-.28a1.98 1.98 0 0 1-1.156.364l-.214-.298a6.571 6.571 0 0 0-.709-.82c-.112-.111-.214-.232-.336-.335-.12-.102 0 0 0 0-.12-.102-.251-.186-.382-.28a8.712 8.712 0 0 0-.998-.651h4.606l.28.428c.252.41.476.838.672 1.285a11.21 11.21 0 0 1 .932 4.536c0 .968-.103 1.946-.336 2.886v-.009Zm.83.754c.196-.633.336-1.285.42-1.946a4.428 4.428 0 0 0 .718-2.412 4.31 4.31 0 0 0-1.166-2.961c-.084-.252-.177-.503-.27-.755v-.111a13.342 13.342 0 0 0-.336-.755v-.084a.502.502 0 0 0-.065-.12 5.276 5.276 0 0 1 2.909 4.814 5.355 5.355 0 0 1-2.247 4.33h.037Zm-15.655-7.17a1.515 1.515 0 0 0-.41 0 1.764 1.764 0 0 0-.448.12 2.34 2.34 0 0 0-.42.243c-.298.223-.54.503-.708.829-.177.335-.28.698-.29 1.08 0 .252.187.447.44.456.046 0 .092 0 .139-.018a.441.441 0 0 0 .354-.438 1.403 1.403 0 0 1 .83-1.22c.15-.056.298-.084.457-.102h.056a1.41 1.41 0 0 1 1.408 1.396.47.47 0 0 0 .56.373.479.479 0 0 0 .372-.373 2.393 2.393 0 0 0-2.377-2.346h.037Zm9.035.242a3.817 3.817 0 0 0-.457-.168 2.156 2.156 0 0 0-.485-.056 2.37 2.37 0 0 0-2.34 2.338.47.47 0 0 0 .56.372.479.479 0 0 0 .372-.372 1.392 1.392 0 0 1 1.054-1.323c.112-.046.224-.065.345-.074h.233c.159.028.308.084.448.158.438.252.708.708.727 1.21.065.56.932.55.932 0a2.336 2.336 0 0 0-.513-1.424 2.478 2.478 0 0 0-.913-.661h.037Z" fill="#221F1F"/></g><defs><clipPath id="a"><path fill="#fff" d="M0 0h217v76H0z"/></clipPath></defs></svg>